# xmcd
#
# Track frame offsets:
# 150
# 18237
# 36310
# 51170
# 68597
# 85542
# 99662
# 115262
# 141317
# 155197
# 174682
#
# Disc length: 2518 seconds
#
#
# Revision: 1
# Processed by: cddbd v1.5.2PL0 Copyright (c) Steve Scherf et al.
# Submitted via: FreeRIP 2.944 
#
DISCID=9209d40b
DTITLE=Over the Rhine - The Trumpet Child
DYEAR=2007
DGENRE=Americana
TTITLE0=Don't Wanna Waste Your Time
TTITLE1=Trouble
TTITLE2=I'm on a Roll
TTITLE3=Nothing is Innocent
TTITLE4=The Trumpet Child
TTITLE5=Entertining Thoughts
TTITLE6=Who'm I Kiddin' but Me
TTITLE7=Let's Spend the Day in Bed
TTITLE8=Desperate for Love
TTITLE9=Don't Wait for Tom
TTITLE10=If a Song Could Be President
EXTD=New release
EXTT0=
EXTT1=
EXTT2=
EXTT3=
EXTT4=
EXTT5=
EXTT6=
EXTT7=
EXTT8=
EXTT9=
EXTT10=
PLAYORDER=
